<?xml version="1.0" encoding="utf-8"?>
<!-- Generator: Adobe Illustrator 15.0.0, SVG Export Plug-In . SVG Version: 6.00 Build 0)  -->
<!DOCTYPE svg PUBLIC "-//W3C//DTD SVG 1.1//EN" "http://www.w3.org/Graphics/SVG/1.1/DTD/svg11.dtd">
<svg version="1.1" id="Layer_1" xmlns="http://www.w3.org/2000/svg" xmlns:xlink="http://www.w3.org/1999/xlink" x="0px" y="0px"
	 width="320px" height="95px" viewBox="0 0 320 95" enable-background="new 0 0 320 95" xml:space="preserve">
<rect x="-7" y="-5" fill="none" width="332" height="104"/>
<g>
	<path fill="#FFDB16" d="M129.488,42.053c1.704,2.409,4.524,4.113,7.638,4.113c3.878,0,7.697-3.055,7.697-7.461
		c0-4.289-3.526-7.521-8.108-7.521c-1.646,0-3.408,0.412-4.936,1.175v-4.701l7.697-9.106h-13.75V11.5h24.971v4.701l-7.461,9.166
		c5.641,2.174,9.518,7.109,9.518,13.337c0,8.695-6.816,14.513-15.335,14.513c-5.112,0-9.988-2.292-13.631-6.404L129.488,42.053z"/>
</g>
<g>
	<path fill="#FFFFFF" d="M117.037,58.663c-2.254,1.955-5.183,3.151-8.401,3.151c-7.106,0-12.868-5.763-12.868-12.867
		c0-7.107,5.762-12.868,12.868-12.868c2.648,0,5.1,0.809,7.144,2.182l1.764-2.253c-2.533-1.755-5.599-2.788-8.908-2.788
		c-8.671,0-15.727,7.054-15.727,15.728c0,8.671,7.055,15.726,15.727,15.726c3.908,0,7.469-1.453,10.221-3.821L117.037,58.663z"/>
	<path fill="#FFFFFF" d="M124.863,68.066c-4.378,3.725-10.042,5.979-16.227,5.979c-13.839,0-25.098-11.26-25.098-25.098
		c0-13.841,11.259-25.099,25.098-25.099c5.485,0,10.558,1.776,14.691,4.773l1.771-2.264c-4.618-3.371-10.306-5.369-16.462-5.369
		c-15.44,0-27.958,12.517-27.958,27.958c0,15.439,12.518,27.957,27.958,27.957c6.889,0,13.195-2.489,18.069-6.623L124.863,68.066z"
		/>
	<path fill="#FFFFFF" d="M120.984,63.406c-3.327,2.849-7.636,4.576-12.349,4.576c-10.496,0-19.036-8.539-19.036-19.035
		c0-10.497,8.54-19.036,19.036-19.036c4.078,0,7.848,1.299,10.945,3.495l1.771-2.262c-3.587-2.571-7.975-4.093-12.715-4.093
		c-12.073,0-21.895,9.821-21.895,21.896c0,12.072,9.822,21.896,21.895,21.896c5.407,0,10.354-1.979,14.176-5.237L120.984,63.406z"/>
</g>
<rect x="20.364" y="21.378" fill="#FFFFFF" width="12.158" height="54.845"/>
<polygon fill="#FFDB16" points="33.063,21.378 20.364,21.378 41.037,71.294 53.458,71.294 "/>
<polygon fill="#FFFFFF" points="61.648,21.378 74.076,21.378 53.458,71.294 41.037,71.294 "/>
<rect x="61.919" y="21.378" fill="#FFDB16" width="12.157" height="54.845"/>
<g>
	<g>
		<path fill="#FFFFFF" d="M178.25,21.823l2.718,5.462l2.692-5.462h1.421v8.062h-1.013v-6.627l-2.77,5.614h-0.678l-2.809-5.704v6.717
			H176.8v-8.062H178.25z"/>
		<path fill="#FFFFFF" d="M189.787,29.208c0.846,0,1.329-0.371,1.449-1.115h1.037c-0.092,0.615-0.361,1.091-0.812,1.429
			c-0.445,0.338-1.004,0.507-1.673,0.507c-0.819,0-1.486-0.292-2-0.878c-0.515-0.586-0.769-1.366-0.769-2.339
			c0-0.974,0.256-1.751,0.773-2.333c0.52-0.58,1.206-0.871,2.062-0.871c0.859,0,1.502,0.333,1.924,0.999
			c0.422,0.667,0.57,1.479,0.441,2.437h-4.191c0,0.632,0.154,1.151,0.461,1.557C188.801,29.004,189.23,29.208,189.787,29.208z
			 M190.531,24.566c-0.197-0.103-0.438-0.153-0.719-0.153c-0.523,0-0.937,0.177-1.235,0.532c-0.306,0.354-0.483,0.796-0.534,1.327
			h3.27C191.312,25.418,191.052,24.849,190.531,24.566z"/>
		<path fill="#FFFFFF" d="M198.288,24.67v-3.512h0.999v8.73h-0.821l-0.128-1.026c-0.195,0.384-0.457,0.675-0.781,0.873
			c-0.324,0.196-0.677,0.294-1.062,0.294c-0.776,0-1.43-0.299-1.956-0.897c-0.524-0.598-0.788-1.378-0.788-2.34
			c0-0.961,0.257-1.732,0.775-2.314c0.519-0.58,1.17-0.871,1.963-0.871C197.275,23.607,197.876,23.959,198.288,24.67z
			 M196.543,24.503c-0.496,0-0.911,0.209-1.249,0.628c-0.339,0.418-0.508,0.978-0.508,1.679c0,0.701,0.171,1.263,0.513,1.686
			c0.344,0.423,0.754,0.636,1.23,0.636c0.479,0,0.889-0.161,1.226-0.481c0.337-0.32,0.517-0.751,0.533-1.289v-0.999
			c0-0.573-0.167-1.026-0.501-1.36C197.455,24.67,197.039,24.503,196.543,24.503z"/>
		<path fill="#FFFFFF" d="M202.453,22.312c-0.204,0-0.364-0.058-0.479-0.173c-0.119-0.117-0.175-0.27-0.175-0.463
			c0-0.192,0.056-0.347,0.175-0.461c0.114-0.116,0.274-0.174,0.479-0.174c0.208,0,0.369,0.058,0.492,0.174
			c0.125,0.116,0.188,0.269,0.188,0.461c0,0.193-0.062,0.348-0.188,0.463C202.822,22.253,202.658,22.312,202.453,22.312z
			 M201.951,23.746h1.016v6.141h-1.016V23.746z"/>
		<path fill="#FFFFFF" d="M208.928,29.708c-0.734,0.343-1.406,0.415-2.013,0.219c-0.437-0.137-0.745-0.424-0.923-0.859
			c-0.094-0.213-0.141-0.47-0.141-0.769v-3.771h-0.99v-0.769h0.99v-1.704h0.996v1.705h1.924v0.769h-1.924v3.757
			c0,0.625,0.293,0.935,0.872,0.935c0.316,0,0.673-0.076,1.063-0.231L208.928,29.708z"/>
		<path fill="#FFFFFF" d="M212.657,29.208c0.846,0,1.329-0.371,1.448-1.115h1.039c-0.094,0.615-0.363,1.091-0.812,1.429
			c-0.447,0.338-1.006,0.507-1.673,0.507c-0.819,0-1.488-0.292-2.001-0.878c-0.512-0.586-0.768-1.366-0.768-2.339
			c0-0.974,0.258-1.751,0.775-2.333c0.518-0.58,1.205-0.871,2.062-0.871c0.858,0,1.502,0.333,1.922,0.999
			c0.424,0.667,0.57,1.479,0.441,2.437h-4.189c0,0.632,0.152,1.151,0.461,1.557C211.671,29.004,212.104,29.208,212.657,29.208z
			 M213.402,24.566c-0.197-0.103-0.438-0.153-0.719-0.153c-0.523,0-0.937,0.177-1.236,0.532c-0.305,0.354-0.482,0.796-0.533,1.327
			h3.268C214.182,25.418,213.922,24.849,213.402,24.566z"/>
		<path fill="#FFFFFF" d="M219.643,24.619c-0.963,0-1.463,0.762-1.498,2.282v2.987h-1.013v-6.141h1.013v1.181
			c0.307-0.854,0.851-1.282,1.627-1.282c0.25,0,0.484,0.038,0.707,0.115l-0.051,0.987C220.171,24.661,219.909,24.619,219.643,24.619
			z"/>
		<path fill="#FFFFFF" d="M224.527,24.619c-0.965,0-1.463,0.762-1.5,2.282v2.987h-1.012v-6.141h1.012v1.181
			c0.309-0.854,0.854-1.282,1.629-1.282c0.248,0,0.482,0.038,0.705,0.115l-0.051,0.987
			C225.055,24.661,224.794,24.619,224.527,24.619z"/>
		<path fill="#FFFFFF" d="M230.708,25.914c0-0.556-0.117-0.953-0.351-1.193c-0.229-0.238-0.564-0.358-1.004-0.358
			s-0.797,0.087-1.062,0.263c-0.27,0.175-0.404,0.451-0.404,0.827h-1.115c0-0.94,0.504-1.522,1.512-1.743
			c0.307-0.069,0.641-0.102,0.999-0.102c0.762,0,1.356,0.192,1.782,0.577c0.429,0.384,0.641,0.97,0.641,1.756v3.949h-0.871
			l-0.104-1.026c-0.377,0.778-1.056,1.167-2.037,1.167c-0.66,0-1.187-0.185-1.584-0.551c-0.398-0.366-0.596-0.825-0.596-1.372
			c0-0.546,0.217-0.974,0.659-1.282c0.442-0.307,0.989-0.461,1.647-0.461c0.656,0,1.285,0.112,1.881,0.334v-0.785H230.708z
			 M230.708,27.336c-0.606-0.171-1.138-0.256-1.591-0.256c-0.452,0-0.818,0.081-1.102,0.243c-0.283,0.163-0.427,0.42-0.427,0.77
			c0,0.771,0.438,1.153,1.31,1.153c0.494,0,0.92-0.177,1.274-0.532C230.529,28.36,230.708,27.899,230.708,27.336z"/>
		<path fill="#FFFFFF" d="M235.066,24.938c0.4-0.888,1.086-1.332,2.062-1.332c0.729,0,1.293,0.238,1.699,0.718
			c0.402,0.479,0.605,1.132,0.605,1.961v3.602h-0.998v-3.602c0-0.591-0.139-1.035-0.414-1.334c-0.28-0.299-0.674-0.449-1.187-0.449
			s-0.927,0.209-1.242,0.628c-0.315,0.418-0.483,0.999-0.502,1.743v3.012h-1.011v-6.128h0.87L235.066,24.938z"/>
		<path fill="#FFFFFF" d="M243.938,29.208c0.849,0,1.328-0.371,1.451-1.115h1.039c-0.094,0.615-0.367,1.091-0.814,1.429
			c-0.446,0.338-1.004,0.507-1.672,0.507c-0.818,0-1.487-0.292-2.002-0.878c-0.513-0.586-0.767-1.366-0.767-2.339
			c0-0.974,0.259-1.751,0.772-2.333c0.521-0.58,1.205-0.871,2.064-0.871c0.856,0,1.5,0.333,1.924,0.999
			c0.42,0.667,0.566,1.479,0.438,2.437h-4.19c0,0.632,0.153,1.151,0.463,1.557C242.951,29.004,243.381,29.208,243.938,29.208z
			 M244.682,24.566c-0.197-0.103-0.436-0.153-0.716-0.153c-0.524,0-0.938,0.177-1.237,0.532c-0.304,0.354-0.483,0.796-0.533,1.327
			h3.268C245.464,25.418,245.202,24.849,244.682,24.566z"/>
		<path fill="#FFFFFF" d="M252.219,25.914c0-0.556-0.113-0.953-0.348-1.193c-0.229-0.238-0.562-0.358-1.005-0.358
			c-0.439,0-0.793,0.087-1.063,0.263c-0.269,0.175-0.404,0.451-0.404,0.827h-1.113c0-0.94,0.504-1.522,1.513-1.743
			c0.308-0.069,0.64-0.102,0.998-0.102c0.761,0,1.354,0.192,1.781,0.577c0.429,0.384,0.641,0.97,0.641,1.756v3.949h-0.87
			l-0.103-1.026c-0.378,0.778-1.058,1.167-2.039,1.167c-0.66,0-1.185-0.185-1.585-0.551c-0.396-0.367-0.594-0.825-0.594-1.372
			c0-0.546,0.217-0.974,0.66-1.282c0.438-0.307,0.987-0.461,1.646-0.461s1.286,0.112,1.884,0.334L252.219,25.914L252.219,25.914z
			 M252.219,27.336c-0.605-0.171-1.135-0.256-1.589-0.256c-0.455,0-0.819,0.081-1.104,0.243c-0.279,0.163-0.42,0.42-0.42,0.77
			c0,0.771,0.434,1.153,1.306,1.153c0.493,0,0.921-0.177,1.276-0.532C252.043,28.36,252.219,27.899,252.219,27.336z"/>
		<path fill="#FFFFFF" d="M256.579,24.938c0.399-0.888,1.09-1.332,2.063-1.332c0.728,0,1.291,0.238,1.696,0.718
			c0.405,0.479,0.61,1.132,0.61,1.961v3.602h-1v-3.602c0-0.591-0.139-1.035-0.417-1.334c-0.278-0.299-0.671-0.449-1.185-0.449
			c-0.516,0-0.931,0.209-1.244,0.628c-0.313,0.418-0.484,0.999-0.5,1.743v3.012h-1.011v-6.128h0.868L256.579,24.938z"/>
	</g>
	<g>
		<path fill="#FFFFFF" d="M179.598,37.066c0.86,0,1.555,0.216,2.082,0.647c0.525,0.433,0.887,0.994,1.082,1.687l-1.088,0.217
			c-0.169-0.504-0.438-0.903-0.802-1.199c-0.364-0.294-0.787-0.442-1.272-0.442c-0.674,0-1.236,0.283-1.682,0.846
			c-0.443,0.565-0.669,1.348-0.669,2.354c0,1.004,0.2,1.809,0.599,2.416c0.396,0.607,0.979,0.91,1.75,0.91
			c0.639,0,1.146-0.168,1.519-0.506c0.37-0.337,0.557-0.784,0.557-1.34h1.087c0,0.845-0.285,1.517-0.861,2.012
			c-0.578,0.497-1.367,0.745-2.373,0.745s-1.815-0.385-2.435-1.154c-0.618-0.77-0.931-1.8-0.931-3.09s0.322-2.297,0.962-3.02
			C177.762,37.428,178.587,37.066,179.598,37.066z"/>
		<path fill="#FFFFFF" d="M185.225,37.694c-0.207,0-0.365-0.057-0.48-0.173c-0.115-0.115-0.174-0.269-0.174-0.462
			c0-0.192,0.059-0.347,0.174-0.461c0.115-0.116,0.273-0.174,0.48-0.174s0.369,0.058,0.491,0.174
			c0.123,0.115,0.188,0.269,0.188,0.461s-0.064,0.347-0.188,0.462C185.594,37.637,185.43,37.694,185.225,37.694z M184.723,39.13
			h1.014v6.141h-1.014V39.13z"/>
		<path fill="#FFFFFF" d="M191.698,45.092c-0.734,0.343-1.407,0.415-2.015,0.218c-0.438-0.137-0.742-0.423-0.922-0.859
			c-0.096-0.213-0.143-0.47-0.143-0.769v-3.77h-0.985v-0.77h0.985v-1.705h0.999v1.705h1.923v0.77h-1.923v3.756
			c0,0.625,0.292,0.937,0.872,0.937c0.314,0,0.67-0.077,1.062-0.232L191.698,45.092z"/>
		<path fill="#FFFFFF" d="M193.877,37.694c-0.205,0-0.363-0.057-0.48-0.173c-0.115-0.115-0.174-0.269-0.174-0.462
			c0-0.192,0.059-0.347,0.174-0.461c0.117-0.116,0.275-0.174,0.48-0.174c0.206,0,0.369,0.058,0.493,0.174
			c0.124,0.115,0.187,0.269,0.187,0.461s-0.062,0.347-0.187,0.462C194.246,37.637,194.081,37.694,193.877,37.694z M193.378,39.13
			h1.013v6.141h-1.013V39.13z"/>
		<path fill="#FFFFFF" d="M199.264,44.592c0.846,0,1.325-0.371,1.449-1.115h1.038c-0.095,0.617-0.362,1.092-0.813,1.43
			c-0.449,0.338-1.006,0.507-1.674,0.507c-0.818,0-1.486-0.292-1.998-0.878c-0.515-0.586-0.77-1.366-0.77-2.339
			c0-0.974,0.259-1.751,0.775-2.333c0.517-0.582,1.203-0.872,2.062-0.872c0.855,0,1.502,0.334,1.921,0.999
			c0.425,0.667,0.572,1.479,0.44,2.437h-4.189c0,0.632,0.152,1.151,0.459,1.557C198.273,44.388,198.708,44.592,199.264,44.592z
			 M200.005,39.95c-0.198-0.102-0.438-0.153-0.718-0.153c-0.521,0-0.936,0.177-1.238,0.532c-0.301,0.354-0.48,0.797-0.531,1.327
			h3.269C200.786,40.802,200.525,40.233,200.005,39.95z"/>
		<path fill="#FFFFFF" d="M204.075,39.438c0.435-0.299,1.016-0.448,1.75-0.448c0.735,0,1.312,0.153,1.725,0.461
			c0.415,0.308,0.63,0.697,0.647,1.167h-0.987c-0.076-0.556-0.547-0.833-1.411-0.833c-0.419,0-0.74,0.094-0.967,0.282
			s-0.34,0.392-0.34,0.608c0,0.219,0.083,0.402,0.254,0.552c0.169,0.15,0.441,0.28,0.818,0.391l1.229,0.41
			c0.521,0.163,0.921,0.37,1.2,0.622c0.275,0.252,0.415,0.6,0.415,1.039c0,0.44-0.226,0.837-0.681,1.192
			c-0.451,0.355-1.084,0.532-1.896,0.532s-1.444-0.182-1.897-0.545c-0.451-0.361-0.691-0.831-0.718-1.403h0.974
			c0.019,0.385,0.175,0.672,0.47,0.866c0.296,0.192,0.665,0.288,1.108,0.288c0.442,0,0.811-0.093,1.103-0.282
			c0.291-0.188,0.438-0.412,0.438-0.672s-0.088-0.459-0.258-0.596c-0.17-0.136-0.447-0.257-0.83-0.359l-1.193-0.396
			c-1.067-0.316-1.6-0.872-1.6-1.667C203.43,40.14,203.643,39.737,204.075,39.438z"/>
		<path fill="#FFFFFF" d="M217.337,41.298c0-0.556-0.114-0.952-0.347-1.192c-0.23-0.24-0.567-0.359-1.008-0.359
			s-0.793,0.088-1.062,0.263c-0.27,0.176-0.402,0.451-0.402,0.827h-1.115c0-0.94,0.504-1.522,1.512-1.743
			c0.307-0.069,0.641-0.103,0.998-0.103c0.763,0,1.357,0.192,1.783,0.577c0.428,0.385,0.641,0.971,0.641,1.756v3.949h-0.872
			l-0.104-1.026c-0.375,0.778-1.053,1.167-2.036,1.167c-0.659,0-1.187-0.184-1.584-0.551c-0.398-0.367-0.597-0.825-0.597-1.371
			c0-0.547,0.219-0.973,0.66-1.282c0.441-0.308,0.99-0.461,1.647-0.461c0.655,0,1.284,0.111,1.884,0.333L217.337,41.298
			L217.337,41.298z M217.337,42.72c-0.606-0.171-1.136-0.257-1.59-0.257c-0.456,0-0.819,0.082-1.104,0.244
			c-0.281,0.162-0.422,0.418-0.422,0.769c0,0.769,0.438,1.154,1.311,1.154c0.492,0,0.919-0.178,1.271-0.533
			C217.16,43.744,217.337,43.284,217.337,42.72z"/>
		<path fill="#FFFFFF" d="M221.695,40.322c0.4-0.888,1.09-1.332,2.062-1.332c0.727,0,1.292,0.239,1.697,0.718
			c0.406,0.479,0.611,1.133,0.611,1.962v3.603h-1V41.67c0-0.59-0.142-1.035-0.418-1.334c-0.277-0.299-0.67-0.449-1.185-0.449
			c-0.514,0-0.928,0.209-1.241,0.628c-0.318,0.419-0.484,0.999-0.502,1.744v3.012h-1.014v-6.128h0.872L221.695,40.322z"/>
		<path fill="#FFFFFF" d="M232.463,40.052v-3.511h1v8.729h-0.818l-0.129-1.025c-0.197,0.385-0.459,0.674-0.781,0.872
			c-0.325,0.197-0.678,0.295-1.065,0.295c-0.774,0-1.427-0.3-1.954-0.898c-0.525-0.598-0.787-1.378-0.787-2.34
			s0.258-1.732,0.774-2.314c0.519-0.581,1.17-0.871,1.96-0.871S232.053,39.344,232.463,40.052z M230.721,39.886
			c-0.496,0-0.912,0.208-1.25,0.628c-0.339,0.418-0.507,0.978-0.507,1.679c0,0.701,0.17,1.262,0.513,1.686
			c0.342,0.423,0.752,0.635,1.231,0.635c0.478,0,0.885-0.161,1.224-0.481c0.338-0.32,0.516-0.75,0.531-1.288v-1
			c0-0.572-0.163-1.025-0.498-1.359C231.631,40.052,231.215,39.886,230.721,39.886z"/>
	</g>
	<g>
		<path fill="#FFFFFF" d="M179.598,52.45c0.86,0,1.555,0.215,2.082,0.647c0.525,0.433,0.887,0.993,1.082,1.687l-1.088,0.218
			c-0.169-0.503-0.438-0.904-0.802-1.199s-0.787-0.441-1.272-0.441c-0.674,0-1.236,0.283-1.682,0.848
			c-0.443,0.562-0.669,1.348-0.669,2.352s0.2,1.811,0.599,2.418c0.396,0.605,0.979,0.91,1.75,0.91c0.639,0,1.146-0.17,1.519-0.507
			c0.37-0.34,0.557-0.786,0.557-1.342h1.087c0,0.849-0.285,1.519-0.861,2.015c-0.578,0.495-1.367,0.743-2.373,0.743
			s-1.815-0.385-2.435-1.153c-0.618-0.769-0.931-1.8-0.931-3.09c0-1.291,0.322-2.295,0.962-3.019
			C177.762,52.811,178.587,52.45,179.598,52.45z"/>
		<path fill="#FFFFFF" d="M184.659,51.924h1.013v8.73h-1.013V51.924z"/>
		<path fill="#FFFFFF" d="M188.814,53.077c-0.205,0-0.366-0.058-0.481-0.173c-0.116-0.115-0.174-0.27-0.174-0.463
			c0-0.191,0.058-0.347,0.174-0.461c0.115-0.115,0.276-0.172,0.481-0.172c0.203,0,0.369,0.058,0.49,0.172
			c0.123,0.115,0.188,0.27,0.188,0.461s-0.062,0.348-0.188,0.463C189.184,53.02,189.02,53.077,188.814,53.077z M188.312,54.514
			h1.015v6.141h-1.015V54.514z"/>
		<path fill="#FFFFFF" d="M193.059,55.706c0.4-0.89,1.088-1.333,2.062-1.333c0.529,0,0.973,0.129,1.333,0.393
			c0.356,0.26,0.619,0.621,0.78,1.084c0.386-0.983,1.1-1.475,2.143-1.475c0.734,0,1.303,0.241,1.705,0.717
			c0.4,0.477,0.602,1.135,0.602,1.961v3.603h-0.998v-3.604c0-0.59-0.14-1.034-0.418-1.332c-0.276-0.3-0.676-0.448-1.197-0.448
			c-0.522,0-0.926,0.211-1.213,0.64c-0.287,0.43-0.43,1.019-0.43,1.771v2.975h-1v-3.602c0-0.588-0.139-1.035-0.416-1.332
			c-0.277-0.301-0.671-0.449-1.187-0.449c-0.513,0-0.927,0.211-1.241,0.629c-0.316,0.42-0.482,0.998-0.5,1.742v3.012h-1.014v-6.129
			h0.871L193.059,55.706z"/>
		<path fill="#FFFFFF" d="M207.861,56.68c0-0.556-0.114-0.953-0.346-1.191c-0.229-0.238-0.565-0.36-1.006-0.36
			c-0.439,0-0.795,0.089-1.062,0.263c-0.271,0.176-0.404,0.452-0.404,0.827h-1.116c0-0.938,0.507-1.519,1.515-1.743
			c0.306-0.067,0.64-0.102,0.998-0.102c0.763,0,1.354,0.191,1.781,0.579c0.43,0.385,0.643,0.969,0.643,1.755v3.949h-0.873
			l-0.104-1.025c-0.377,0.776-1.055,1.166-2.037,1.166c-0.66,0-1.187-0.184-1.586-0.551c-0.396-0.366-0.595-0.824-0.595-1.371
			s0.22-0.975,0.662-1.281c0.438-0.306,0.989-0.461,1.646-0.461c0.658,0,1.285,0.111,1.885,0.333V56.68L207.861,56.68z
			 M207.861,58.102c-0.604-0.17-1.135-0.256-1.588-0.256c-0.455,0-0.82,0.082-1.104,0.246c-0.281,0.163-0.423,0.419-0.423,0.768
			c0,0.77,0.437,1.154,1.308,1.154c0.494,0,0.922-0.177,1.276-0.531C207.688,59.127,207.861,58.667,207.861,58.102z"/>
		<path fill="#FFFFFF" d="M214.454,60.475c-0.736,0.34-1.41,0.414-2.017,0.217c-0.438-0.135-0.744-0.424-0.924-0.857
			c-0.094-0.215-0.141-0.471-0.141-0.771v-3.768h-0.986v-0.768h0.986v-1.704h0.998v1.704h1.923v0.768h-1.923v3.757
			c0,0.624,0.293,0.937,0.872,0.937c0.317,0,0.673-0.076,1.063-0.232L214.454,60.475z"/>
		<path fill="#FFFFFF" d="M218.184,59.975c0.846,0,1.328-0.373,1.45-1.115h1.039c-0.095,0.615-0.364,1.091-0.815,1.429
			c-0.444,0.339-1.004,0.507-1.67,0.507c-0.819,0-1.487-0.294-2.002-0.878c-0.512-0.584-0.766-1.365-0.766-2.34
			c0-0.974,0.256-1.752,0.771-2.333c0.519-0.58,1.205-0.871,2.062-0.871c0.859,0,1.502,0.333,1.924,1
			c0.424,0.667,0.57,1.479,0.44,2.434h-4.19c0,0.633,0.153,1.153,0.461,1.558C217.195,59.771,217.628,59.975,218.184,59.975z
			 M218.927,55.333c-0.194-0.103-0.436-0.156-0.718-0.156c-0.521,0-0.934,0.179-1.234,0.535c-0.303,0.353-0.482,0.796-0.531,1.325
			h3.267C219.709,56.186,219.449,55.616,218.927,55.333z"/>
	</g>
	<g>
		<path fill="#FFFFFF" d="M179.598,67.833c0.86,0,1.555,0.215,2.082,0.647c0.525,0.432,0.887,0.994,1.082,1.686l-1.088,0.218
			c-0.169-0.504-0.438-0.903-0.802-1.198s-0.787-0.443-1.272-0.443c-0.674,0-1.236,0.283-1.682,0.849
			c-0.443,0.563-0.669,1.349-0.669,2.351c0,1.006,0.2,1.812,0.599,2.418c0.396,0.607,0.979,0.908,1.75,0.908
			c0.639,0,1.146-0.166,1.519-0.506c0.37-0.336,0.557-0.783,0.557-1.339h1.087c0,0.849-0.285,1.519-0.861,2.015
			c-0.578,0.496-1.367,0.744-2.373,0.744s-1.815-0.385-2.435-1.151c-0.618-0.771-0.931-1.8-0.931-3.091s0.322-2.297,0.962-3.019
			C177.762,68.193,178.587,67.833,179.598,67.833z"/>
		<path fill="#FFFFFF" d="M185.672,71.038c0.41-0.854,1.09-1.281,2.039-1.281c0.725,0,1.292,0.239,1.697,0.718
			c0.404,0.48,0.607,1.133,0.607,1.963v3.602h-0.998v-3.602c0-0.588-0.139-1.035-0.416-1.332c-0.277-0.301-0.678-0.448-1.197-0.448
			c-0.524,0-0.942,0.22-1.258,0.659c-0.316,0.439-0.476,1.05-0.476,1.83v2.896h-1.013v-8.731h1.013L185.672,71.038L185.672,71.038z"
			/>
		<path fill="#FFFFFF" d="M196.197,72.062c0-0.555-0.114-0.951-0.346-1.19c-0.231-0.238-0.565-0.358-1.006-0.358
			c-0.441,0-0.795,0.086-1.063,0.26c-0.271,0.177-0.404,0.453-0.404,0.828h-1.114c0-0.94,0.504-1.521,1.512-1.742
			c0.307-0.069,0.642-0.104,0.998-0.104c0.764,0,1.356,0.191,1.783,0.579c0.428,0.385,0.642,0.97,0.642,1.755v3.95h-0.872
			l-0.102-1.026c-0.381,0.777-1.059,1.166-2.039,1.166c-0.662,0-1.188-0.182-1.586-0.551c-0.396-0.367-0.595-0.824-0.595-1.372
			c0-0.546,0.218-0.975,0.659-1.28c0.441-0.307,0.992-0.461,1.646-0.461c0.657,0,1.285,0.111,1.885,0.332v-0.785H196.197
			L196.197,72.062z M196.197,73.486c-0.606-0.17-1.133-0.258-1.588-0.258s-0.821,0.084-1.104,0.248
			c-0.283,0.164-0.425,0.418-0.425,0.767c0,0.769,0.438,1.153,1.31,1.153c0.494,0,0.92-0.177,1.274-0.532
			C196.021,74.51,196.197,74.05,196.197,73.486z"/>
		<path fill="#FFFFFF" d="M200.559,71.089c0.399-0.889,1.09-1.333,2.062-1.333c0.727,0,1.292,0.239,1.697,0.719
			c0.406,0.479,0.609,1.133,0.609,1.963v3.601h-1.001v-3.601c0-0.588-0.139-1.037-0.415-1.334c-0.277-0.299-0.673-0.447-1.187-0.447
			c-0.513,0-0.927,0.21-1.242,0.628c-0.315,0.419-0.481,0.998-0.499,1.741v3.012h-1.014V69.91h0.871L200.559,71.089z"/>
		<path fill="#FFFFFF" d="M207.568,75.845c-0.514-0.247-0.77-0.627-0.77-1.14c0-0.266,0.1-0.499,0.301-0.699
			c0.201-0.201,0.449-0.336,0.752-0.404c-0.461-0.41-0.692-0.947-0.692-1.613c0-0.67,0.237-1.207,0.712-1.615
			c0.475-0.41,1.037-0.617,1.688-0.617c0.648,0,1.197,0.156,1.652,0.462c0.062-0.454,0.24-0.813,0.545-1.088
			c0.303-0.272,0.702-0.41,1.197-0.41l-0.09,0.997c-0.754,0-1.146,0.317-1.18,0.95c0.299,0.367,0.448,0.81,0.448,1.321
			c0,0.658-0.235,1.197-0.714,1.621c-0.475,0.423-1.066,0.634-1.775,0.634c-0.486,0-0.918-0.097-1.293-0.296
			c-0.173,0.033-0.328,0.113-0.461,0.236c-0.141,0.123-0.207,0.293-0.207,0.506c0,0.453,0.373,0.681,1.127,0.681h2.385
			c0.574,0,1.027,0.119,1.363,0.362c0.332,0.246,0.498,0.584,0.498,1.021c0,0.649-0.328,1.22-0.981,1.704
			c-0.654,0.486-1.48,0.73-2.48,0.73c-0.997,0-1.782-0.187-2.356-0.558c-0.572-0.373-0.858-0.841-0.858-1.405
			c0-0.367,0.11-0.666,0.327-0.896C206.92,76.1,207.208,75.939,207.568,75.845z M207.375,77.191c0,0.324,0.18,0.604,0.532,0.84
			c0.354,0.234,0.893,0.353,1.614,0.353c0.721,0,1.324-0.157,1.809-0.47c0.482-0.311,0.723-0.676,0.723-1.094
			c0-0.197-0.068-0.365-0.211-0.508c-0.141-0.141-0.354-0.211-0.646-0.211h-2.475c-0.436,0.02-0.769,0.121-1,0.314
			C207.49,76.609,207.375,76.867,207.375,77.191z M211.145,71.979c0-0.439-0.133-0.799-0.396-1.078
			c-0.265-0.275-0.629-0.414-1.095-0.414c-0.467,0-0.831,0.139-1.096,0.414c-0.264,0.277-0.396,0.639-0.396,1.084
			c0,0.443,0.136,0.81,0.404,1.097c0.267,0.286,0.632,0.43,1.094,0.43c0.463,0,0.822-0.146,1.088-0.437
			C211.012,72.786,211.145,72.42,211.145,71.979z"/>
		<path fill="#FFFFFF" d="M216.672,75.359c0.844,0,1.328-0.375,1.447-1.116h1.041c-0.096,0.614-0.363,1.09-0.812,1.429
			c-0.449,0.338-1.008,0.505-1.675,0.505c-0.821,0-1.485-0.292-2.002-0.877c-0.512-0.583-0.767-1.366-0.767-2.34
			c0-0.972,0.257-1.75,0.775-2.333c0.518-0.58,1.204-0.871,2.062-0.871c0.855,0,1.502,0.333,1.921,0.999
			c0.424,0.668,0.573,1.478,0.44,2.433h-4.188c0,0.635,0.151,1.152,0.46,1.559C215.682,75.152,216.116,75.359,216.672,75.359z
			 M217.414,70.718c-0.197-0.104-0.436-0.155-0.717-0.155c-0.522,0-0.936,0.179-1.235,0.533c-0.305,0.353-0.483,0.797-0.534,1.324
			h3.268C218.195,71.566,217.936,71,217.414,70.718z"/>
	</g>
</g>
</svg>
