<?xml version="1.0" encoding="utf-8"?>
<!-- Generator: Adobe Illustrator 16.0.0, SVG Export Plug-In . SVG Version: 6.00 Build 0)  -->
<!DOCTYPE svg PUBLIC "-//W3C//DTD SVG 1.1//EN" "http://www.w3.org/Graphics/SVG/1.1/DTD/svg11.dtd">
<svg version="1.1" id="Layer_1" xmlns="http://www.w3.org/2000/svg" xmlns:xlink="http://www.w3.org/1999/xlink" x="0px" y="0px"
	 width="320px" height="95px" viewBox="0 -199 320 95" enable-background="new 0 -199 320 95" xml:space="preserve">
<rect x="-7" y="-205" fill="none" width="332" height="104"/>
<g>
	<path fill="#FFDB16" d="M129.488-157.947c1.704,2.409,4.524,4.113,7.638,4.113c3.878,0,7.697-3.055,7.697-7.461
		c0-4.289-3.526-7.521-8.108-7.521c-1.646,0-3.408,0.412-4.936,1.175v-4.701l7.697-9.106h-13.75v-7.052h24.971v4.701l-7.461,9.166
		c5.641,2.174,9.518,7.109,9.518,13.337c0,8.695-6.816,14.513-15.335,14.513c-5.112,0-9.988-2.292-13.631-6.404L129.488-157.947z"/>
</g>
<g>
	<path fill="#FFFFFF" d="M117.037-141.337c-2.254,1.955-5.183,3.151-8.401,3.151c-7.106,0-12.868-5.762-12.868-12.867
		c0-7.107,5.762-12.868,12.868-12.868c2.648,0,5.1,0.809,7.144,2.182l1.764-2.253c-2.533-1.755-5.599-2.788-8.908-2.788
		c-8.671,0-15.727,7.054-15.727,15.727c0,8.671,7.055,15.726,15.727,15.726c3.908,0,7.469-1.453,10.221-3.822L117.037-141.337z"/>
	<path fill="#FFFFFF" d="M124.863-131.934c-4.378,3.725-10.042,5.979-16.227,5.979c-13.839,0-25.098-11.26-25.098-25.098
		c0-13.841,11.259-25.099,25.098-25.099c5.485,0,10.558,1.776,14.691,4.773l1.771-2.264c-4.618-3.371-10.306-5.369-16.462-5.369
		c-15.44,0-27.958,12.517-27.958,27.958c0,15.439,12.518,27.957,27.958,27.957c6.889,0,13.195-2.49,18.069-6.623L124.863-131.934z"
		/>
	<path fill="#FFFFFF" d="M120.984-136.594c-3.327,2.849-7.636,4.576-12.349,4.576c-10.496,0-19.036-8.539-19.036-19.035
		c0-10.497,8.54-19.036,19.036-19.036c4.078,0,7.848,1.299,10.945,3.495l1.771-2.262c-3.587-2.571-7.975-4.093-12.715-4.093
		c-12.073,0-21.895,9.821-21.895,21.896c0,12.072,9.822,21.896,21.895,21.896c5.407,0,10.354-1.98,14.176-5.238L120.984-136.594z"/>
</g>
<rect x="20.364" y="-178.622" fill="#FFFFFF" width="12.158" height="54.845"/>
<polygon fill="#FFDB16" points="33.063,-178.622 20.364,-178.622 41.037,-128.706 53.458,-128.706 "/>
<polygon fill="#FFFFFF" points="61.648,-178.622 74.076,-178.622 53.458,-128.706 41.037,-128.706 "/>
<rect x="61.919" y="-178.622" fill="#FFDB16" width="12.157" height="54.845"/>
<g>
	<g>
		<path fill="#FFFFFF" d="M208.25-178.177l2.718,5.462l2.692-5.462h1.421v8.063h-1.012v-6.627l-2.77,5.614h-0.678l-2.808-5.704
			v6.717h-1.013v-8.063H208.25z"/>
		<path fill="#FFFFFF" d="M219.787-170.792c0.846,0,1.329-0.371,1.449-1.115h1.038c-0.093,0.615-0.362,1.091-0.813,1.429
			c-0.445,0.338-1.004,0.507-1.673,0.507c-0.819,0-1.486-0.292-2-0.878s-0.768-1.366-0.768-2.339c0-0.974,0.256-1.751,0.773-2.333
			c0.519-0.58,1.206-0.871,2.063-0.871c0.859,0,1.502,0.333,1.923,0.999c0.422,0.667,0.57,1.479,0.441,2.437h-4.19
			c0,0.632,0.153,1.151,0.46,1.557C218.801-170.996,219.231-170.792,219.787-170.792z M220.531-175.434
			c-0.197-0.103-0.438-0.153-0.718-0.153c-0.524,0-0.937,0.177-1.236,0.532c-0.306,0.354-0.483,0.796-0.534,1.327h3.269
			C221.313-174.582,221.052-175.151,220.531-175.434z"/>
		<path fill="#FFFFFF" d="M228.288-175.33v-3.512h0.999v8.73h-0.821l-0.128-1.026c-0.195,0.384-0.457,0.675-0.781,0.873
			c-0.325,0.196-0.677,0.294-1.063,0.294c-0.776,0-1.429-0.299-1.956-0.897c-0.525-0.598-0.788-1.378-0.788-2.34
			c0-0.961,0.257-1.732,0.775-2.314c0.519-0.58,1.171-0.871,1.963-0.871C227.276-176.393,227.876-176.041,228.288-175.33z
			 M226.543-175.497c-0.496,0-0.911,0.209-1.249,0.628c-0.339,0.418-0.508,0.978-0.508,1.679s0.171,1.263,0.513,1.686
			c0.344,0.423,0.753,0.636,1.231,0.636c0.479,0,0.888-0.161,1.225-0.481s0.516-0.751,0.533-1.289v-0.999
			c0-0.573-0.167-1.026-0.501-1.36C227.455-175.33,227.039-175.497,226.543-175.497z"/>
		<path fill="#FFFFFF" d="M232.453-177.688c-0.204,0-0.364-0.058-0.479-0.173c-0.118-0.117-0.174-0.27-0.174-0.463
			c0-0.192,0.056-0.347,0.174-0.461c0.115-0.116,0.275-0.174,0.479-0.174c0.208,0,0.369,0.058,0.492,0.174
			c0.125,0.116,0.188,0.269,0.188,0.461c0,0.193-0.063,0.348-0.188,0.463C232.822-177.747,232.658-177.688,232.453-177.688z
			 M231.951-176.254h1.016v6.141h-1.016V-176.254z"/>
		<path fill="#FFFFFF" d="M238.928-170.292c-0.735,0.343-1.407,0.415-2.013,0.219c-0.437-0.137-0.745-0.424-0.923-0.859
			c-0.094-0.213-0.141-0.47-0.141-0.769v-3.771h-0.989v-0.769h0.989v-1.704h0.997v1.705h1.923v0.769h-1.923v3.757
			c0,0.625,0.292,0.935,0.872,0.935c0.316,0,0.672-0.076,1.063-0.231L238.928-170.292z"/>
		<path fill="#FFFFFF" d="M242.657-170.792c0.846,0,1.329-0.371,1.449-1.115h1.039c-0.094,0.615-0.364,1.091-0.813,1.429
			c-0.447,0.338-1.006,0.507-1.673,0.507c-0.819,0-1.488-0.292-2.001-0.878c-0.512-0.586-0.767-1.366-0.767-2.339
			c0-0.974,0.257-1.751,0.775-2.333c0.518-0.58,1.205-0.871,2.063-0.871c0.858,0,1.501,0.333,1.922,0.999
			c0.423,0.667,0.57,1.479,0.441,2.437h-4.19c0,0.632,0.152,1.151,0.461,1.557C241.671-170.996,242.103-170.792,242.657-170.792z
			 M243.402-175.434c-0.197-0.103-0.438-0.153-0.719-0.153c-0.523,0-0.936,0.177-1.236,0.532c-0.305,0.354-0.482,0.796-0.533,1.327
			h3.268C244.182-174.582,243.922-175.151,243.402-175.434z"/>
		<path fill="#FFFFFF" d="M249.643-175.381c-0.964,0-1.464,0.762-1.499,2.282v2.987h-1.012v-6.141h1.012v1.181
			c0.307-0.855,0.851-1.282,1.627-1.282c0.25,0,0.485,0.038,0.707,0.115l-0.05,0.987
			C250.171-175.339,249.909-175.381,249.643-175.381z"/>
		<path fill="#FFFFFF" d="M254.528-175.381c-0.966,0-1.464,0.762-1.501,2.282v2.987h-1.011v-6.141h1.011v1.181
			c0.309-0.855,0.854-1.282,1.629-1.282c0.248,0,0.483,0.038,0.705,0.115l-0.05,0.987
			C255.055-175.339,254.794-175.381,254.528-175.381z"/>
		<path fill="#FFFFFF" d="M260.708-174.086c0-0.556-0.117-0.953-0.35-1.193c-0.229-0.238-0.565-0.358-1.004-0.358
			c-0.44,0-0.797,0.087-1.063,0.263c-0.27,0.175-0.404,0.451-0.404,0.827h-1.116c0-0.94,0.505-1.522,1.512-1.743
			c0.307-0.069,0.641-0.102,0.999-0.102c0.762,0,1.356,0.192,1.782,0.577c0.429,0.384,0.641,0.97,0.641,1.756v3.949h-0.871
			l-0.104-1.026c-0.376,0.778-1.055,1.167-2.037,1.167c-0.66,0-1.186-0.185-1.584-0.551s-0.596-0.825-0.596-1.372
			c0-0.546,0.218-0.974,0.66-1.282c0.442-0.307,0.989-0.461,1.647-0.461c0.657,0,1.285,0.112,1.881,0.334v-0.785H260.708z
			 M260.708-172.664c-0.607-0.171-1.138-0.256-1.591-0.256c-0.452,0-0.818,0.081-1.102,0.243c-0.283,0.163-0.426,0.42-0.426,0.77
			c0,0.77,0.439,1.153,1.309,1.153c0.495,0,0.92-0.177,1.275-0.532C260.529-171.64,260.708-172.101,260.708-172.664z"/>
		<path fill="#FFFFFF" d="M265.067-175.062c0.4-0.888,1.086-1.332,2.062-1.332c0.728,0,1.293,0.238,1.699,0.718
			c0.403,0.479,0.606,1.132,0.606,1.961v3.602h-0.998v-3.602c0-0.591-0.139-1.035-0.415-1.334c-0.28-0.299-0.673-0.449-1.186-0.449
			s-0.927,0.209-1.242,0.628c-0.315,0.418-0.483,0.999-0.502,1.743v3.012h-1.011v-6.128h0.87L265.067-175.062z"/>
		<path fill="#FFFFFF" d="M273.938-170.792c0.848,0,1.328-0.371,1.451-1.115h1.039c-0.094,0.615-0.367,1.091-0.814,1.429
			c-0.447,0.338-1.005,0.507-1.672,0.507c-0.819,0-1.488-0.292-2.002-0.878c-0.513-0.586-0.767-1.366-0.767-2.339
			c0-0.974,0.258-1.751,0.772-2.333c0.521-0.58,1.205-0.871,2.065-0.871c0.856,0,1.5,0.333,1.923,0.999
			c0.421,0.667,0.567,1.479,0.439,2.437h-4.19c0,0.632,0.153,1.151,0.462,1.557C272.951-170.996,273.381-170.792,273.938-170.792z
			 M274.682-175.434c-0.197-0.103-0.436-0.153-0.716-0.153c-0.524,0-0.938,0.177-1.238,0.532c-0.303,0.354-0.483,0.796-0.532,1.327
			h3.267C275.464-174.582,275.202-175.151,274.682-175.434z"/>
		<path fill="#FFFFFF" d="M282.219-174.086c0-0.556-0.114-0.953-0.348-1.193c-0.229-0.238-0.563-0.358-1.005-0.358
			c-0.439,0-0.793,0.087-1.063,0.263c-0.269,0.175-0.404,0.451-0.404,0.827h-1.114c0-0.94,0.504-1.522,1.513-1.743
			c0.307-0.069,0.639-0.102,0.998-0.102c0.761,0,1.354,0.192,1.781,0.577c0.429,0.384,0.641,0.97,0.641,1.756v3.949h-0.87
			l-0.103-1.026c-0.378,0.778-1.057,1.167-2.039,1.167c-0.66,0-1.185-0.185-1.585-0.551c-0.396-0.367-0.594-0.825-0.594-1.372
			c0-0.546,0.217-0.974,0.66-1.282c0.439-0.307,0.988-0.461,1.646-0.461c0.658,0,1.286,0.112,1.884,0.334L282.219-174.086
			L282.219-174.086z M282.219-172.664c-0.606-0.171-1.135-0.256-1.589-0.256c-0.455,0-0.819,0.081-1.104,0.243
			c-0.28,0.163-0.421,0.42-0.421,0.77c0,0.77,0.434,1.153,1.306,1.153c0.494,0,0.921-0.177,1.276-0.532
			C282.043-171.64,282.219-172.101,282.219-172.664z"/>
		<path fill="#FFFFFF" d="M286.579-175.062c0.4-0.888,1.09-1.332,2.063-1.332c0.728,0,1.291,0.238,1.697,0.718
			c0.405,0.479,0.61,1.132,0.61,1.961v3.602h-1v-3.602c0-0.591-0.139-1.035-0.417-1.334s-0.671-0.449-1.184-0.449
			c-0.516,0-0.931,0.209-1.244,0.628c-0.314,0.418-0.485,0.999-0.5,1.743v3.012h-1.011v-6.128h0.868L286.579-175.062z"/>
	</g>
	<g>
		<path fill="#FFFFFF" d="M209.597-162.934c0.861,0,1.556,0.216,2.082,0.647c0.526,0.433,0.887,0.994,1.083,1.687l-1.088,0.217
			c-0.169-0.504-0.438-0.903-0.802-1.199c-0.364-0.294-0.787-0.442-1.273-0.442c-0.673,0-1.236,0.283-1.681,0.846
			c-0.443,0.565-0.669,1.348-0.669,2.354c0,1.004,0.2,1.809,0.598,2.416c0.396,0.607,0.979,0.91,1.75,0.91
			c0.64,0,1.146-0.168,1.519-0.506c0.371-0.337,0.557-0.784,0.557-1.34h1.087c0,0.845-0.286,1.517-0.862,2.012
			c-0.577,0.497-1.367,0.745-2.373,0.745s-1.815-0.385-2.434-1.154c-0.619-0.77-0.931-1.8-0.931-3.09c0-1.29,0.322-2.297,0.962-3.02
			C207.762-162.572,208.587-162.934,209.597-162.934z"/>
		<path fill="#FFFFFF" d="M215.225-162.306c-0.207,0-0.366-0.057-0.481-0.173c-0.115-0.115-0.174-0.269-0.174-0.462
			c0-0.192,0.059-0.347,0.174-0.461c0.115-0.116,0.274-0.174,0.481-0.174s0.369,0.058,0.491,0.174
			c0.123,0.115,0.188,0.269,0.188,0.461c0,0.192-0.064,0.347-0.188,0.462C215.594-162.363,215.429-162.306,215.225-162.306z
			 M214.723-160.87h1.013v6.141h-1.013V-160.87z"/>
		<path fill="#FFFFFF" d="M221.698-154.908c-0.734,0.343-1.407,0.415-2.015,0.218c-0.437-0.137-0.742-0.423-0.922-0.859
			c-0.095-0.213-0.142-0.47-0.142-0.769v-3.77h-0.985v-0.77h0.985v-1.705h0.999v1.705h1.923v0.77h-1.923v3.756
			c0,0.625,0.292,0.937,0.872,0.937c0.315,0,0.67-0.077,1.063-0.232L221.698-154.908z"/>
		<path fill="#FFFFFF" d="M223.877-162.306c-0.205,0-0.364-0.057-0.481-0.173c-0.115-0.115-0.173-0.269-0.173-0.462
			c0-0.192,0.058-0.347,0.173-0.461c0.117-0.116,0.276-0.174,0.481-0.174c0.206,0,0.369,0.058,0.493,0.174
			c0.124,0.115,0.187,0.269,0.187,0.461c0,0.192-0.063,0.347-0.187,0.462C224.246-162.363,224.081-162.306,223.877-162.306z
			 M223.378-160.87h1.012v6.141h-1.012V-160.87z"/>
		<path fill="#FFFFFF" d="M229.263-155.408c0.847,0,1.326-0.371,1.45-1.115h1.038c-0.095,0.617-0.363,1.092-0.813,1.43
			c-0.449,0.338-1.006,0.507-1.674,0.507c-0.819,0-1.486-0.292-1.999-0.878c-0.514-0.586-0.769-1.366-0.769-2.339
			c0-0.974,0.259-1.751,0.775-2.333c0.517-0.582,1.204-0.872,2.063-0.872c0.856,0,1.502,0.334,1.921,0.999
			c0.424,0.667,0.572,1.479,0.441,2.437h-4.19c0,0.632,0.152,1.151,0.459,1.557C228.274-155.612,228.708-155.408,229.263-155.408z
			 M230.005-160.05c-0.198-0.102-0.438-0.153-0.718-0.153c-0.522,0-0.935,0.177-1.238,0.532c-0.301,0.354-0.48,0.797-0.531,1.327
			h3.268C230.786-159.198,230.526-159.767,230.005-160.05z"/>
		<path fill="#FFFFFF" d="M234.075-160.562c0.435-0.299,1.016-0.448,1.75-0.448c0.736,0,1.311,0.153,1.725,0.461
			c0.415,0.308,0.63,0.697,0.647,1.167h-0.987c-0.076-0.556-0.547-0.833-1.411-0.833c-0.419,0-0.741,0.094-0.967,0.282
			c-0.227,0.188-0.34,0.392-0.34,0.608c0,0.219,0.083,0.402,0.254,0.552c0.169,0.15,0.442,0.28,0.819,0.391l1.229,0.41
			c0.521,0.163,0.921,0.37,1.2,0.622c0.276,0.252,0.415,0.6,0.415,1.039c0,0.44-0.226,0.837-0.68,1.192
			c-0.451,0.355-1.084,0.532-1.896,0.532c-0.811,0-1.445-0.182-1.897-0.545c-0.451-0.361-0.692-0.831-0.718-1.403h0.974
			c0.018,0.385,0.174,0.672,0.469,0.866c0.296,0.192,0.665,0.288,1.108,0.288s0.811-0.093,1.103-0.282
			c0.291-0.188,0.438-0.412,0.438-0.672c0-0.26-0.087-0.459-0.257-0.596c-0.17-0.136-0.448-0.257-0.831-0.359l-1.193-0.396
			c-1.067-0.316-1.6-0.872-1.6-1.667C233.429-159.86,233.643-160.263,234.075-160.562z"/>
		<path fill="#FFFFFF" d="M247.337-158.702c0-0.556-0.115-0.952-0.347-1.192c-0.23-0.24-0.567-0.359-1.007-0.359
			c-0.441,0-0.794,0.088-1.063,0.263c-0.269,0.176-0.402,0.451-0.402,0.827h-1.115c0-0.94,0.503-1.522,1.511-1.743
			c0.307-0.069,0.641-0.103,0.998-0.103c0.763,0,1.358,0.192,1.783,0.577c0.428,0.385,0.641,0.971,0.641,1.756v3.949h-0.872
			l-0.104-1.026c-0.376,0.778-1.054,1.167-2.037,1.167c-0.659,0-1.186-0.184-1.584-0.551s-0.596-0.825-0.596-1.371
			c0-0.547,0.219-0.973,0.659-1.282c0.442-0.308,0.991-0.461,1.648-0.461c0.656,0,1.285,0.111,1.884,0.333L247.337-158.702
			L247.337-158.702z M247.337-157.28c-0.606-0.171-1.136-0.257-1.59-0.257c-0.456,0-0.819,0.082-1.104,0.244
			c-0.281,0.162-0.423,0.418-0.423,0.769c0,0.769,0.438,1.154,1.311,1.154c0.493,0,0.919-0.178,1.271-0.533
			C247.16-156.256,247.337-156.716,247.337-157.28z"/>
		<path fill="#FFFFFF" d="M251.695-159.678c0.4-0.888,1.09-1.332,2.063-1.332c0.726,0,1.292,0.239,1.697,0.718
			c0.406,0.479,0.611,1.133,0.611,1.962v3.603h-1v-3.603c0-0.59-0.141-1.035-0.417-1.334c-0.278-0.299-0.671-0.449-1.185-0.449
			s-0.928,0.209-1.242,0.628c-0.317,0.419-0.484,0.999-0.502,1.744v3.012h-1.013v-6.128h0.872L251.695-159.678z"/>
		<path fill="#FFFFFF" d="M262.463-159.948v-3.511h1v8.729h-0.819l-0.128-1.025c-0.197,0.385-0.459,0.674-0.782,0.872
			c-0.325,0.197-0.678,0.295-1.065,0.295c-0.774,0-1.427-0.3-1.954-0.898c-0.526-0.598-0.787-1.378-0.787-2.34
			s0.257-1.732,0.774-2.314c0.519-0.581,1.17-0.871,1.96-0.871C261.452-161.011,262.053-160.656,262.463-159.948z M260.721-160.114
			c-0.496,0-0.913,0.208-1.251,0.628c-0.338,0.418-0.506,0.978-0.506,1.679c0,0.701,0.17,1.262,0.513,1.686
			c0.342,0.423,0.752,0.635,1.231,0.635c0.477,0,0.885-0.161,1.223-0.481c0.339-0.32,0.516-0.75,0.532-1.288v-1
			c0-0.572-0.163-1.025-0.498-1.359C261.631-159.948,261.215-160.114,260.721-160.114z"/>
	</g>
	<g>
		<path fill="#FFFFFF" d="M209.597-147.55c0.861,0,1.556,0.215,2.082,0.648c0.526,0.432,0.887,0.993,1.083,1.686l-1.088,0.218
			c-0.169-0.503-0.438-0.904-0.802-1.199c-0.364-0.295-0.787-0.441-1.273-0.441c-0.673,0-1.236,0.283-1.681,0.847
			c-0.443,0.563-0.669,1.348-0.669,2.351c0,1.005,0.2,1.811,0.598,2.418c0.396,0.606,0.979,0.91,1.75,0.91
			c0.64,0,1.146-0.169,1.519-0.506c0.371-0.34,0.557-0.786,0.557-1.342h1.087c0,0.848-0.286,1.518-0.862,2.015
			c-0.577,0.495-1.367,0.743-2.373,0.743s-1.815-0.385-2.434-1.154c-0.619-0.768-0.931-1.799-0.931-3.089
			c0-1.292,0.322-2.295,0.962-3.019C207.762-147.189,208.587-147.55,209.597-147.55z"/>
		<path fill="#FFFFFF" d="M214.659-148.076h1.013v8.73h-1.013V-148.076z"/>
		<path fill="#FFFFFF" d="M218.814-146.923c-0.205,0-0.366-0.058-0.481-0.173c-0.116-0.115-0.174-0.269-0.174-0.462
			c0-0.192,0.058-0.347,0.174-0.461c0.115-0.116,0.276-0.173,0.481-0.173c0.204,0,0.369,0.058,0.491,0.173
			c0.123,0.115,0.187,0.269,0.187,0.461c0,0.191-0.063,0.347-0.187,0.462C219.184-146.981,219.019-146.923,218.814-146.923z
			 M218.313-145.486h1.014v6.14h-1.014V-145.486z"/>
		<path fill="#FFFFFF" d="M223.058-144.294c0.401-0.89,1.089-1.333,2.063-1.333c0.529,0,0.973,0.129,1.333,0.393
			c0.357,0.259,0.619,0.621,0.78,1.083c0.386-0.983,1.1-1.474,2.143-1.474c0.734,0,1.303,0.241,1.705,0.717
			c0.401,0.477,0.602,1.134,0.602,1.961v3.602h-0.998v-3.603c0-0.59-0.14-1.034-0.418-1.332c-0.277-0.3-0.676-0.449-1.198-0.449
			s-0.925,0.212-1.213,0.64c-0.286,0.43-0.43,1.018-0.43,1.771v2.974h-0.999v-3.601c0-0.588-0.139-1.036-0.416-1.333
			c-0.278-0.3-0.671-0.448-1.187-0.448c-0.512,0-0.926,0.21-1.241,0.629c-0.316,0.419-0.483,0.997-0.5,1.741v3.012h-1.014v-6.129
			h0.872L223.058-144.294z"/>
		<path fill="#FFFFFF" d="M237.862-143.321c0-0.555-0.115-0.952-0.347-1.191c-0.229-0.238-0.565-0.36-1.005-0.36
			c-0.44,0-0.795,0.089-1.063,0.263c-0.27,0.176-0.404,0.452-0.404,0.827h-1.116c0-0.939,0.506-1.519,1.515-1.743
			c0.305-0.068,0.639-0.102,0.998-0.102c0.762,0,1.354,0.191,1.781,0.579c0.429,0.385,0.642,0.969,0.642,1.755v3.949h-0.873
			l-0.103-1.025c-0.377,0.776-1.055,1.166-2.037,1.166c-0.661,0-1.187-0.184-1.586-0.551c-0.396-0.366-0.595-0.824-0.595-1.371
			s0.219-0.975,0.662-1.281c0.439-0.306,0.99-0.461,1.646-0.461c0.658,0,1.285,0.111,1.884,0.333L237.862-143.321L237.862-143.321z
			 M237.862-141.898c-0.605-0.17-1.136-0.256-1.589-0.256c-0.454,0-0.82,0.082-1.103,0.246c-0.282,0.163-0.423,0.419-0.423,0.768
			c0,0.769,0.436,1.153,1.308,1.153c0.494,0,0.921-0.176,1.276-0.531C237.688-140.873,237.862-141.333,237.862-141.898z"/>
		<path fill="#FFFFFF" d="M244.454-139.525c-0.736,0.34-1.41,0.413-2.017,0.216c-0.438-0.135-0.744-0.423-0.923-0.857
			c-0.094-0.215-0.141-0.471-0.141-0.771v-3.768h-0.986v-0.768h0.986v-1.704h0.998v1.704h1.923v0.768h-1.923v3.757
			c0,0.624,0.293,0.936,0.872,0.936c0.317,0,0.673-0.076,1.063-0.232L244.454-139.525z"/>
		<path fill="#FFFFFF" d="M248.183-140.025c0.847,0,1.329-0.373,1.451-1.116h1.039c-0.095,0.615-0.365,1.091-0.815,1.429
			c-0.445,0.339-1.004,0.507-1.671,0.507c-0.819,0-1.487-0.294-2.001-0.878c-0.512-0.584-0.766-1.365-0.766-2.34
			c0-0.973,0.256-1.752,0.772-2.333c0.518-0.58,1.205-0.871,2.062-0.871c0.859,0,1.502,0.333,1.924,1
			c0.424,0.667,0.57,1.478,0.44,2.434h-4.19c0,0.632,0.153,1.153,0.46,1.557C247.196-140.229,247.628-140.025,248.183-140.025z
			 M248.927-144.667c-0.195-0.102-0.436-0.156-0.718-0.156c-0.521,0-0.934,0.178-1.235,0.535c-0.302,0.353-0.482,0.796-0.531,1.325
			h3.267C249.709-143.815,249.449-144.384,248.927-144.667z"/>
	</g>
	<g>
		<path fill="#FFFFFF" d="M209.597-132.167c0.861,0,1.556,0.215,2.082,0.647c0.526,0.432,0.887,0.994,1.083,1.686l-1.088,0.218
			c-0.169-0.504-0.438-0.904-0.802-1.199c-0.364-0.295-0.787-0.443-1.273-0.443c-0.673,0-1.236,0.284-1.681,0.849
			c-0.443,0.563-0.669,1.348-0.669,2.351c0,1.005,0.2,1.811,0.598,2.418c0.396,0.607,0.979,0.908,1.75,0.908
			c0.64,0,1.146-0.166,1.519-0.506c0.371-0.336,0.557-0.783,0.557-1.339h1.087c0,0.848-0.286,1.518-0.862,2.015
			c-0.577,0.496-1.367,0.744-2.373,0.744s-1.815-0.385-2.434-1.152c-0.619-0.771-0.931-1.8-0.931-3.091
			c0-1.29,0.322-2.296,0.962-3.018C207.762-131.807,208.587-132.167,209.597-132.167z"/>
		<path fill="#FFFFFF" d="M215.672-128.962c0.41-0.855,1.09-1.281,2.039-1.281c0.725,0,1.292,0.239,1.697,0.718
			c0.405,0.48,0.608,1.133,0.608,1.963v3.601h-0.998v-3.601c0-0.588-0.139-1.036-0.416-1.333c-0.278-0.3-0.678-0.448-1.198-0.448
			c-0.524,0-0.942,0.22-1.257,0.66c-0.317,0.439-0.476,1.049-0.476,1.829v2.896h-1.013v-8.731h1.013V-128.962z"/>
		<path fill="#FFFFFF" d="M226.197-127.937c0-0.555-0.114-0.952-0.346-1.191c-0.231-0.238-0.565-0.358-1.005-0.358
			c-0.442,0-0.795,0.086-1.064,0.26c-0.27,0.176-0.404,0.452-0.404,0.827h-1.115c0-0.94,0.504-1.52,1.513-1.741
			c0.306-0.07,0.641-0.104,0.998-0.104c0.763,0,1.356,0.191,1.783,0.579c0.428,0.385,0.641,0.97,0.641,1.755v3.95h-0.872
			l-0.102-1.027c-0.38,0.778-1.058,1.167-2.039,1.167c-0.661,0-1.188-0.182-1.586-0.551c-0.396-0.367-0.594-0.824-0.594-1.372
			c0-0.546,0.218-0.975,0.659-1.281c0.442-0.306,0.992-0.461,1.647-0.461c0.657,0,1.284,0.112,1.884,0.333v-0.786H226.197z
			 M226.197-126.514c-0.606-0.17-1.133-0.257-1.588-0.257s-0.821,0.083-1.103,0.247c-0.283,0.164-0.425,0.419-0.425,0.767
			c0,0.769,0.438,1.153,1.31,1.153c0.494,0,0.919-0.176,1.274-0.532C226.021-125.49,226.197-125.95,226.197-126.514z"/>
		<path fill="#FFFFFF" d="M230.558-128.911c0.4-0.889,1.09-1.333,2.063-1.333c0.726,0,1.292,0.239,1.698,0.718
			c0.405,0.48,0.609,1.133,0.609,1.963v3.601h-1.001v-3.601c0-0.588-0.139-1.036-0.415-1.333c-0.278-0.3-0.673-0.448-1.187-0.448
			c-0.513,0-0.926,0.21-1.242,0.628c-0.315,0.419-0.482,0.998-0.499,1.741v3.012h-1.014v-6.127h0.872L230.558-128.911z"/>
		<path fill="#FFFFFF" d="M237.568-124.155c-0.513-0.248-0.769-0.627-0.769-1.14c0-0.265,0.1-0.499,0.301-0.699
			c0.201-0.202,0.449-0.336,0.751-0.404c-0.461-0.41-0.692-0.948-0.692-1.614c0-0.669,0.237-1.207,0.712-1.615
			c0.474-0.41,1.037-0.617,1.688-0.617c0.648,0,1.197,0.156,1.652,0.462c0.062-0.454,0.24-0.814,0.545-1.088
			c0.303-0.273,0.702-0.41,1.197-0.41l-0.09,0.997c-0.753,0-1.146,0.317-1.179,0.95c0.299,0.367,0.448,0.809,0.448,1.321
			c0,0.658-0.236,1.198-0.714,1.621c-0.474,0.423-1.066,0.634-1.775,0.634c-0.487,0-0.919-0.097-1.294-0.296
			c-0.172,0.033-0.328,0.114-0.461,0.236c-0.14,0.124-0.207,0.294-0.207,0.507c0,0.453,0.374,0.68,1.127,0.68h2.386
			c0.574,0,1.027,0.119,1.362,0.362c0.333,0.247,0.498,0.584,0.498,1.021c0,0.649-0.328,1.22-0.981,1.704
			c-0.654,0.487-1.48,0.731-2.48,0.731c-0.998,0-1.783-0.187-2.356-0.558c-0.573-0.373-0.859-0.841-0.859-1.405
			c0-0.367,0.11-0.667,0.327-0.896C236.92-123.9,237.208-124.061,237.568-124.155z M237.375-122.809c0,0.324,0.179,0.604,0.532,0.84
			c0.354,0.234,0.893,0.353,1.614,0.353c0.721,0,1.324-0.157,1.809-0.47c0.483-0.31,0.723-0.676,0.723-1.094
			c0-0.197-0.069-0.365-0.211-0.507c-0.141-0.141-0.354-0.212-0.647-0.212h-2.474c-0.436,0.02-0.769,0.122-1,0.315
			C237.49-123.391,237.375-123.133,237.375-122.809z M241.145-128.021c0-0.44-0.133-0.8-0.396-1.079
			c-0.265-0.275-0.629-0.414-1.094-0.414c-0.468,0-0.832,0.139-1.097,0.414c-0.263,0.278-0.396,0.639-0.396,1.085
			c0,0.443,0.136,0.809,0.404,1.096c0.267,0.286,0.632,0.43,1.094,0.43c0.463,0,0.823-0.146,1.088-0.437
			C241.012-127.214,241.145-127.58,241.145-128.021z"/>
		<path fill="#FFFFFF" d="M246.672-124.641c0.844,0,1.328-0.374,1.447-1.116h1.041c-0.095,0.614-0.363,1.09-0.813,1.429
			c-0.449,0.338-1.007,0.505-1.674,0.505c-0.821,0-1.486-0.292-2.002-0.877c-0.512-0.583-0.767-1.367-0.767-2.34
			c0-0.972,0.257-1.75,0.776-2.333c0.517-0.58,1.204-0.871,2.062-0.871c0.856,0,1.502,0.333,1.921,0.999
			c0.424,0.668,0.573,1.478,0.441,2.433h-4.189c0,0.634,0.152,1.152,0.46,1.558C245.682-124.847,246.116-124.641,246.672-124.641z
			 M247.414-129.282c-0.197-0.104-0.436-0.155-0.717-0.155c-0.522,0-0.936,0.178-1.235,0.533c-0.305,0.352-0.483,0.797-0.534,1.324
			h3.268C248.195-128.434,247.935-129,247.414-129.282z"/>
	</g>
</g>
</svg>
